<?xml version="1.0" encoding="utf-8"?>
<!-- Generator: Adobe Illustrator 18.0.0, SVG Export Plug-In . SVG Version: 6.00 Build 0)  -->
<!DOCTYPE svg PUBLIC "-//W3C//DTD SVG 1.1//EN" "http://www.w3.org/Graphics/SVG/1.1/DTD/svg11.dtd" [
	<!ENTITY ns_extend "http://ns.adobe.com/Extensibility/1.0/">
	<!ENTITY ns_ai "http://ns.adobe.com/AdobeIllustrator/10.0/">
	<!ENTITY ns_graphs "http://ns.adobe.com/Graphs/1.0/">
	<!ENTITY ns_vars "http://ns.adobe.com/Variables/1.0/">
	<!ENTITY ns_imrep "http://ns.adobe.com/ImageReplacement/1.0/">
	<!ENTITY ns_sfw "http://ns.adobe.com/SaveForWeb/1.0/">
	<!ENTITY ns_custom "http://ns.adobe.com/GenericCustomNamespace/1.0/">
	<!ENTITY ns_adobe_xpath "http://ns.adobe.com/XPath/1.0/">
]>
<svg version="1.1" id="base" xmlns:x="&ns_extend;" xmlns:i="&ns_ai;" xmlns:graph="&ns_graphs;"
	 xmlns="http://www.w3.org/2000/svg" xmlns:xlink="http://www.w3.org/1999/xlink" x="0px" y="0px" viewBox="0 0 1000 1000"
	 enable-background="new 0 0 1000 1000" xml:space="preserve">
<metadata>
	<sfw  xmlns="&ns_sfw;">
		<slices></slices>
		<sliceSourceBounds  height="1000" width="1000" x="-500" y="-500" bottomLeftOrigin="true"></sliceSourceBounds>
		<optimizationSettings>
			<targetSettings  fileFormat="PNG24Format" targetSettingsID="0">
				<PNG24Format  transparency="true" noMatteColor="false" interlaced="false" filtered="false" matteColor="#FFFFFF">
					</PNG24Format>
			</targetSettings>
		</optimizationSettings>
	</sfw>
</metadata>
<rect id="back" display="none" fill="#FFFFFF" width="1000" height="1000"/>
<path id="circle" fill="none" d="M500,103.4c-218.3,0-395.3,177-395.3,395.3S281.7,894,500,894s395.3-177,395.3-395.3
	S718.3,103.4,500,103.4z M500,864C298.8,864,135.8,701,135.8,499.8S298.8,135.6,500,135.6s364.2,163.1,364.2,364.2
	S701.2,864,500,864z"/>
<path id="fill" fill="none" d="M500,103.4c-218.3,0-395.3,177-395.3,395.3S281.7,894,500,894s395.3-177,395.3-395.3
	S718.3,103.4,500,103.4z"/>
<path id="a" fill="none" d="M649.6,310.7l-57.7,145.6l-137.1,0l-59.8-145.6l-79.4,0l186.7,454.5l180.2-454.5L649.6,310.7z
	 M524.4,626.5l-57.2-139.3h112.5L524.4,626.5z"/>
</svg>
