<?xml version="1.0" encoding="utf-8"?>
<!-- Generator: Adobe Illustrator 18.0.0, SVG Export Plug-In . SVG Version: 6.00 Build 0)  -->
<!DOCTYPE svg PUBLIC "-//W3C//DTD SVG 1.1//EN" "http://www.w3.org/Graphics/SVG/1.1/DTD/svg11.dtd" [
	<!ENTITY ns_extend "http://ns.adobe.com/Extensibility/1.0/">
	<!ENTITY ns_ai "http://ns.adobe.com/AdobeIllustrator/10.0/">
	<!ENTITY ns_graphs "http://ns.adobe.com/Graphs/1.0/">
	<!ENTITY ns_vars "http://ns.adobe.com/Variables/1.0/">
	<!ENTITY ns_imrep "http://ns.adobe.com/ImageReplacement/1.0/">
	<!ENTITY ns_sfw "http://ns.adobe.com/SaveForWeb/1.0/">
	<!ENTITY ns_custom "http://ns.adobe.com/GenericCustomNamespace/1.0/">
	<!ENTITY ns_adobe_xpath "http://ns.adobe.com/XPath/1.0/">
]>
<svg version="1.1" id="Layer_1" xmlns:x="&ns_extend;" xmlns:i="&ns_ai;" xmlns:graph="&ns_graphs;"
	 xmlns="http://www.w3.org/2000/svg" xmlns:xlink="http://www.w3.org/1999/xlink" x="0px" y="0px" viewBox="0 0 800 800"
	 enable-background="new 0 0 800 800" xml:space="preserve">
<metadata>
	<sfw  xmlns="&ns_sfw;">
		<slices></slices>
		<sliceSourceBounds  width="410.1" height="414.5" bottomLeftOrigin="true" y="-213.3" x="-212.9"></sliceSourceBounds>
		<optimizationSettings>
			<targetSettings  targetSettingsID="0" fileFormat="PNG24Format">
				<PNG24Format  transparency="true" interlaced="false" filtered="false" matteColor="#FFFFFF" noMatteColor="false">
					</PNG24Format>
			</targetSettings>
		</optimizationSettings>
	</sfw>
</metadata>
<g>
	<path d="M233.5,287.1c0-14.7-1.5-30.2-18.4-30.2c-9.6,0-19.1,2.2-22.8,3.7l-5.2-22.1c25.8-23.6,58.2-39.8,102.3-39.8
		c44.9,0,77.3,22.1,90.6,61.1c20.6-31.7,54.5-58.2,109-58.2c63.3,0,108.2,34.6,108.2,100.1c0,64.8-44.2,91.3-95.7,109l-119.3,41.2
		v81c0,29.5,7.4,49.3,31.7,49.3c25.8,0,35.3-22.8,35.3-56.7c0-17.7-2.9-36.1-7.4-54.5l91.3-11.8c22.1,7.4,38.3,25.8,38.3,53.7
		c0,69.9-72.2,100.1-164.2,100.1c-107.5,0-173.8-31.7-173.8-131.1V287.1z M382.2,282v136.2l29.5-11c23.6-8.8,39.8-20.6,39.8-64.1
		c0-36.8-12.5-64.8-47.9-64.8C395.5,278.3,389.6,279.8,382.2,282z"/>
</g>
</svg>
